<svg xmlns="http://www.w3.org/2000/svg" xmlns:xlink="http://www.w3.org/1999/xlink" preserveAspectRatio="xMidYMid" width="14" height="14" viewBox="0 0 14 14">
  <defs>
    <style>
      .cls-1 {
        fill: #5a5a5a;
        fill-rule: evenodd;
      }
    </style>
  </defs>
  <path d="M9.333,6.999 C9.333,5.714 8.285,4.666 7.000,4.666 C5.715,4.666 4.667,5.714 4.667,6.999 C4.667,8.285 5.715,9.333 7.000,9.333 C8.285,9.333 9.333,8.285 9.333,6.999 ZM7.000,2.041 C9.734,2.041 11.958,4.265 11.958,6.999 C11.958,9.734 9.734,11.958 7.000,11.958 C4.265,11.958 2.042,9.734 2.042,6.999 C2.042,4.265 4.265,2.041 7.000,2.041 ZM14.000,6.999 C14.000,3.135 10.865,-0.000 7.000,-0.000 L7.000,-0.000 C3.135,-0.000 -0.000,3.135 -0.000,6.999 C-0.000,10.864 3.135,14.000 7.000,14.000 C10.865,14.000 14.000,10.864 14.000,6.999 Z" class="cls-1"/>
</svg>
