<svg xmlns="http://www.w3.org/2000/svg" xmlns:xlink="http://www.w3.org/1999/xlink" preserveAspectRatio="xMidYMid" width="54" height="54" viewBox="0 0 54 54">
  <defs>
    <style>
      .cls-1 {
        fill: #222;
        fill-rule: evenodd;
      }
    </style>
  </defs>
  <path d="M38.812,50.625 L35.437,50.625 C33.575,50.625 32.062,49.112 32.062,47.250 L32.062,42.187 L21.937,42.187 L21.937,47.250 C21.937,49.112 20.425,50.625 18.562,50.625 L15.187,50.625 C14.254,50.625 13.500,51.381 13.500,52.312 C13.500,53.245 14.254,54.000 15.187,54.000 L38.812,54.000 C39.745,54.000 40.500,53.245 40.500,52.312 C40.500,51.381 39.745,50.625 38.812,50.625 ZM51.047,-0.001 L2.953,-0.001 C1.323,-0.001 -0.000,1.417 -0.000,3.164 L-0.000,35.648 C-0.000,37.395 1.323,38.812 2.953,38.812 L51.047,38.812 C52.677,38.812 54.000,37.395 54.000,35.648 L54.000,3.164 C54.000,1.417 52.677,-0.001 51.047,-0.001 ZM50.625,35.437 L3.375,35.437 L3.375,3.375 L50.625,3.375 L50.625,35.437 Z" class="cls-1"/>
</svg>
